<svg width="19" height="20" viewBox="0 0 19 20" fill="none" xmlns="http://www.w3.org/2000/svg">
<path d="M4.04778 8.99998C3.66102 8.99998 3.31288 8.76551 3.16747 8.40713L0.484831 1.79498C0.25315 1.22394 0.673358 0.599976 1.28961 0.599976C1.64793 0.599976 1.96947 0.820031 2.09919 1.15404L3.99129 6.02576C4.15578 6.44928 4.75421 6.45163 4.92202 6.02942L6.87222 1.12276C6.99766 0.807143 7.30293 0.599976 7.64256 0.599976C8.2325 0.599976 8.63364 1.19877 8.40917 1.74434L5.66614 8.41144C5.51963 8.76754 5.17266 8.99998 4.78759 8.99998H4.04778Z" fill="white"/>
<path d="M14.3362 6.89519C14.2627 6.80306 14.1089 6.61026 14.1089 6.61026C13.7842 6.20333 13.9635 5.59747 14.4574 5.43285C14.7547 5.33376 15.0822 5.43024 15.2783 5.67466L16.656 7.392L16.8157 7.59047C17.145 7.9997 16.9643 8.61183 16.4656 8.77675C16.1686 8.875 15.8417 8.77916 15.6447 8.53604L15.408 8.244C14.8004 7.53822 14.2025 6.72869 14.3362 6.89519Z" fill="white"/>
<path d="M15.902 5.86962C16.0488 6.0351 16.3542 6.20751 16.643 6.34615C16.9971 6.51611 17.4246 6.38469 17.58 6.024C17.812 5.496 17.928 4.932 17.928 4.332C17.928 3.724 17.816 3.16 17.592 2.64C17.368 2.112 17.052 1.652 16.644 1.26C16.244 0.86 15.772 0.552 15.228 0.336C14.692 0.112 14.112 0 13.488 0C12.864 0 12.284 0.112 11.748 0.336C11.212 0.552 10.74 0.86 10.332 1.26C9.932 1.652 9.616 2.112 9.384 2.64C9.16 3.16 9.048 3.724 9.048 4.332C9.048 4.94 9.16 5.508 9.384 6.036C9.616 6.556 9.932 7.016 10.332 7.416C10.74 7.808 11.212 8.116 11.748 8.34C12.284 8.556 12.864 8.664 13.488 8.664C13.5657 8.664 13.6485 8.664 13.7325 8.66271C14.1856 8.65574 14.3884 8.2357 14.2173 7.81608C14.1142 7.56314 14.0008 7.306 13.9118 7.15813C13.8517 7.05835 13.7404 7.05803 13.6248 7.07294C13.2524 7.12101 12.713 6.98049 12.432 6.86398C12.112 6.71998 11.832 6.52798 11.592 6.28798C11.36 6.03998 11.176 5.74798 11.04 5.41198C10.904 5.07598 10.836 4.71598 10.836 4.33198C10.836 3.93998 10.904 3.57998 11.04 3.25198C11.176 2.91598 11.36 2.62798 11.592 2.38798C11.832 2.13998 12.112 1.94798 12.432 1.81198C12.76 1.66798 13.112 1.59598 13.488 1.59598C13.872 1.59598 14.224 1.66798 14.544 1.81198C14.864 1.94798 15.144 2.13998 15.384 2.38798C15.624 2.62798 15.812 2.91598 15.948 3.25198C16.084 3.57998 16.152 3.93998 16.152 4.33198C16.152 4.65998 16.1 4.96798 15.996 5.25598C15.9702 5.33355 15.9411 5.40907 15.9088 5.48257C15.8513 5.61345 15.8072 5.76269 15.902 5.86962Z" fill="white"/>
<path d="M13.92 19.132C13.296 19.132 12.716 19.024 12.18 18.808C11.644 18.584 11.172 18.276 10.764 17.884C10.364 17.484 10.048 17.024 9.81601 16.504C9.59201 15.976 9.48001 15.408 9.48001 14.8C9.48001 14.192 9.59201 13.628 9.81601 13.108C10.048 12.58 10.364 12.12 10.764 11.728C11.172 11.328 11.644 11.02 12.18 10.804C12.716 10.58 13.296 10.468 13.92 10.468C14.544 10.468 15.124 10.58 15.66 10.804C16.204 11.02 16.676 11.328 17.076 11.728C17.484 12.12 17.8 12.58 18.024 13.108C18.248 13.628 18.36 14.192 18.36 14.8C18.36 15.408 18.248 15.976 18.024 16.504C17.8 17.024 17.484 17.484 17.076 17.884C16.676 18.276 16.204 18.584 15.66 18.808C15.124 19.024 14.544 19.132 13.92 19.132ZM13.92 17.536C14.304 17.536 14.656 17.468 14.976 17.332C15.296 17.188 15.576 16.996 15.816 16.756C16.056 16.508 16.244 16.216 16.38 15.88C16.516 15.544 16.584 15.184 16.584 14.8C16.584 14.408 16.516 14.048 16.38 13.72C16.244 13.384 16.056 13.096 15.816 12.856C15.576 12.608 15.296 12.416 14.976 12.28C14.656 12.136 14.304 12.064 13.92 12.064C13.544 12.064 13.196 12.136 12.876 12.28C12.556 12.416 12.276 12.608 12.036 12.856C11.796 13.096 11.608 13.384 11.472 13.72C11.336 14.048 11.268 14.404 11.268 14.788C11.268 15.18 11.336 15.544 11.472 15.88C11.608 16.216 11.796 16.508 12.036 16.756C12.276 16.996 12.556 17.188 12.876 17.332C13.196 17.468 13.544 17.536 13.92 17.536Z" fill="white"/>
<path d="M3.048 19C3.048 19.2761 2.82415 19.5 2.548 19.5C2.27186 19.5 2.048 19.2761 2.048 19V18.6445C2.20126 18.7116 2.37002 18.75 2.548 18.75C2.72599 18.75 2.89475 18.7116 3.048 18.6445V19ZM2.548 16.5C2.73032 16.5 2.90082 16.5495 3.048 16.6348V17H3.41324C3.49848 17.1472 3.548 17.3177 3.548 17.5C3.548 17.6823 3.49848 17.8528 3.41324 18H3.048V18.3643C2.90073 18.4496 2.7305 18.5 2.548 18.5C2.36551 18.5 2.19528 18.4496 2.048 18.3643V18H1.68277C1.59753 17.8528 1.548 17.6823 1.548 17.5C1.548 17.3177 1.59753 17.1472 1.68277 17H2.048V16.6348C2.19519 16.5495 2.36568 16.5 2.548 16.5ZM8.548 17C8.82415 17 9.048 17.2239 9.048 17.5C9.048 17.7761 8.82415 18 8.548 18H3.69254C3.75958 17.8467 3.798 17.678 3.798 17.5C3.798 17.322 3.75958 17.1533 3.69254 17H8.548ZM1.40347 17C1.33643 17.1533 1.298 17.322 1.298 17.5C1.298 17.678 1.33643 17.8467 1.40347 18H0.548004C0.271862 18 0.0480042 17.7761 0.0480042 17.5C0.0480042 17.2239 0.271862 17 0.548004 17H1.40347ZM3.048 16.3545C2.89484 16.2875 2.72585 16.25 2.548 16.25C2.37016 16.25 2.20117 16.2875 2.048 16.3545V15.6445C2.20126 15.7116 2.37002 15.75 2.548 15.75C2.72599 15.75 2.89475 15.7116 3.048 15.6445V16.3545ZM2.548 13.5C2.73032 13.5 2.90082 13.5495 3.048 13.6348V14H3.41324C3.49848 14.1472 3.548 14.3177 3.548 14.5C3.548 14.6823 3.49848 14.8528 3.41324 15H3.048V15.3643C2.90073 15.4496 2.7305 15.5 2.548 15.5C2.36551 15.5 2.19528 15.4496 2.048 15.3643V15H1.68277C1.59753 14.8528 1.548 14.6823 1.548 14.5C1.548 14.3177 1.59753 14.1472 1.68277 14H2.048V13.6348C2.19519 13.5495 2.36568 13.5 2.548 13.5ZM1.40347 14C1.33643 14.1533 1.298 14.322 1.298 14.5C1.298 14.678 1.33643 14.8467 1.40347 15H0.548004C0.271862 15 0.0480042 14.7761 0.0480042 14.5C0.0480042 14.2239 0.271862 14 0.548004 14H1.40347ZM8.548 14C8.82415 14 9.048 14.2239 9.048 14.5C9.048 14.7761 8.82415 15 8.548 15H3.69254C3.75958 14.8467 3.798 14.678 3.798 14.5C3.798 14.322 3.75958 14.1533 3.69254 14H8.548ZM3.048 13.3545C2.89484 13.2875 2.72585 13.25 2.548 13.25C2.37016 13.25 2.20117 13.2875 2.048 13.3545V11H3.048V13.3545Z" fill="white"/>
<line x1="0.548004" y1="11.5" x2="8.548" y2="11.5" stroke="white" stroke-linecap="round"/>
<path d="M4.048 13.8C4.048 13.6343 4.18232 13.5 4.348 13.5H5.748C5.91369 13.5 6.048 13.6343 6.048 13.8V15.2C6.048 15.3657 5.91369 15.5 5.748 15.5H4.348C4.18232 15.5 4.048 15.3657 4.048 15.2V13.8Z" fill="white"/>
<path d="M4.048 13.8C4.048 13.6343 4.18232 13.5 4.348 13.5H5.748C5.91369 13.5 6.048 13.6343 6.048 13.8V15.2C6.048 15.3657 5.91369 15.5 5.748 15.5H4.348C4.18232 15.5 4.048 15.3657 4.048 15.2V13.8Z" fill="white"/>
<path d="M6.048 16.8C6.048 16.6343 6.18232 16.5 6.348 16.5H7.748C7.91369 16.5 8.048 16.6343 8.048 16.8V18.2C8.048 18.3657 7.91369 18.5 7.748 18.5H6.348C6.18232 18.5 6.048 18.3657 6.048 18.2V16.8Z" fill="white"/>
<path d="M6.048 16.8C6.048 16.6343 6.18232 16.5 6.348 16.5H7.748C7.91369 16.5 8.048 16.6343 8.048 16.8V18.2C8.048 18.3657 7.91369 18.5 7.748 18.5H6.348C6.18232 18.5 6.048 18.3657 6.048 18.2V16.8Z" fill="white"/>
<circle cx="2.548" cy="14.5" r="1" fill="white"/>
<circle cx="2.548" cy="17.5" r="1" fill="white"/>
</svg>
